<svg width="21" height="22" viewBox="0 0 21 22" fill="none" xmlns="http://www.w3.org/2000/svg">
<path fill-rule="evenodd" clip-rule="evenodd" d="M11.1139 0.210648C10.7528 -0.0702159 10.2472 -0.0702159 9.88606 0.210648L0.886059 7.21065C0.642473 7.4001 0.5 7.69141 0.5 8V19C0.5 19.7957 0.81607 20.5587 1.37868 21.1213C1.94129 21.6839 2.70435 22 3.5 22H7.5H13.5H17.5C18.2957 22 19.0587 21.6839 19.6213 21.1213C20.1839 20.5587 20.5 19.7957 20.5 19V8C20.5 7.69141 20.3575 7.4001 20.1139 7.21065L11.1139 0.210648ZM6.5 20V21C6.5 21.5523 6.94772 22 7.5 22C8.05228 22 8.5 21.5523 8.5 21V20H12.5V12H8.5V20H6.5ZM6.5 20H3.5C3.23478 20 2.98043 19.8946 2.79289 19.7071C2.60536 19.5196 2.5 19.2652 2.5 19V8.48908L10.5 2.26686L18.5 8.48908V19C18.5 19.2652 18.3946 19.5196 18.2071 19.7071C18.0196 19.8946 17.7652 20 17.5 20H14.5V11C14.5 10.4477 14.0523 10 13.5 10H7.5C6.94772 10 6.5 10.4477 6.5 11V20Z" fill="#1B1D21"/>
<path d="M7.5 22C8.05228 22 8.5 21.5523 8.5 21V20H6.5V21C6.5 21.5523 6.94772 22 7.5 22Z" fill="#1B1D21"/>
</svg>
