<svg width="23" height="22" viewBox="0 0 23 22" fill="none" xmlns="http://www.w3.org/2000/svg">
<path fill-rule="evenodd" clip-rule="evenodd" d="M18.5 2C18.2599 2 18.0222 2.04729 17.8003 2.13918C17.5785 2.23107 17.3769 2.36575 17.2071 2.53553L3.89491 15.8478L2.92524 19.4032L6.4807 18.4335L19.7929 5.12132C19.9627 4.95153 20.0974 4.74997 20.1893 4.52814C20.2812 4.3063 20.3284 4.06854 20.3284 3.82843C20.3284 3.58831 20.2812 3.35055 20.1893 3.12872C20.0974 2.90688 19.9627 2.70532 19.7929 2.53553C19.6231 2.36575 19.4216 2.23107 19.1997 2.13918C18.9779 2.04729 18.7401 2 18.5 2ZM17.0349 0.291422C17.4994 0.099025 17.9973 0 18.5 0C19.0028 0 19.5006 0.099025 19.9651 0.291422C20.4296 0.483818 20.8516 0.765818 21.2071 1.12132C21.5626 1.47682 21.8446 1.89886 22.037 2.36335C22.2294 2.82784 22.3284 3.32567 22.3284 3.82843C22.3284 4.33118 22.2294 4.82901 22.037 5.2935C21.8446 5.75799 21.5626 6.18003 21.2071 6.53553L7.70713 20.0355C7.58407 20.1586 7.43104 20.2474 7.26314 20.2932L1.76314 21.7932C1.41693 21.8876 1.04667 21.7893 0.792916 21.5355C0.539166 21.2818 0.440838 20.9115 0.535259 20.5653L2.03526 15.0653C2.08105 14.8974 2.16986 14.7444 2.29292 14.6213L15.7929 1.12132C16.1484 0.765818 16.5705 0.483818 17.0349 0.291422Z" fill="black"/>
</svg>
