<svg xmlns="http://www.w3.org/2000/svg" xmlns:xlink="http://www.w3.org/1999/xlink" width="500" zoomAndPan="magnify" viewBox="0 0 375 374.999991" height="500" preserveAspectRatio="xMidYMid meet" version="1.0"><defs><clipPath id="e78edef903"><path d="M 109.839844 101.726562 L 252 101.726562 L 252 243 L 109.839844 243 Z M 109.839844 101.726562 " clip-rule="nonzero"/></clipPath></defs><g clip-path="url(#e78edef903)"><path fill="#8c52ff" d="M 109.992188 101.75 L 241.730469 241.5625 C 241.730469 241.5625 246.21875 244.726562 249.648438 241.03125 C 253.082031 237.328125 250.4375 233.632812 250.4375 233.632812 Z M 109.992188 101.75 " fill-opacity="1" fill-rule="nonzero"/></g><path fill="#8c52ff" d="M 151.703125 114.964844 L 252.027344 223.324219 C 252.027344 223.324219 256.511719 226.5 259.941406 222.796875 C 263.378906 219.097656 260.738281 215.394531 260.738281 215.394531 Z M 151.703125 114.964844 " fill-opacity="1" fill-rule="nonzero"/><path fill="#8c52ff" d="M 122.398438 143.246094 L 222.722656 251.605469 C 222.722656 251.605469 227.214844 254.777344 230.644531 251.074219 C 234.074219 247.378906 231.433594 243.675781 231.433594 243.675781 L 122.398438 143.246094 L 122.402344 143.246094 Z M 122.398438 143.246094 " fill-opacity="1" fill-rule="nonzero"/><path fill="#8c52ff" d="M 186.964844 126.328125 L 257.054688 202.035156 C 257.054688 202.035156 260.191406 204.253906 262.585938 201.667969 C 264.988281 199.085938 263.140625 196.496094 263.140625 196.496094 L 186.964844 126.328125 L 186.964844 126.332031 Z M 186.964844 126.328125 " fill-opacity="1" fill-rule="nonzero"/><path fill="#8c52ff" d="M 132.054688 176.015625 L 202.140625 251.71875 C 202.140625 251.71875 205.277344 253.9375 207.679688 251.351562 C 210.074219 248.765625 208.226562 246.183594 208.226562 246.183594 Z M 132.054688 176.015625 " fill-opacity="1" fill-rule="nonzero"/><path fill="#8c52ff" d="M 222.984375 142.714844 L 254.75 177.128906 C 254.75 177.128906 256.300781 178.167969 257.488281 176.960938 C 258.671875 175.75 257.765625 174.539062 257.765625 174.539062 Z M 222.984375 142.714844 " fill-opacity="1" fill-rule="nonzero"/><path fill="#8c52ff" d="M 149.59375 210.902344 L 181.355469 245.320312 C 181.355469 245.320312 182.910156 246.359375 184.09375 245.144531 C 185.28125 243.933594 184.371094 242.722656 184.371094 242.722656 Z M 149.59375 210.902344 " fill-opacity="1" fill-rule="nonzero"/></svg>