<svg width="1433" height="231" viewBox="0 0 1433 231" fill="none" xmlns="http://www.w3.org/2000/svg">
<path d="M0 0.600006L34.3 39.03C68.6 77.1 137 154.5 206 149.37C274.3 144.6 343 58.2 411 34.17C480 10.5 549 48.3 617 91.77C685.7 134.7 754 183.3 823 173.4C891.4 163.5 960 96.9 1029 62.97C1097.1 29.4 1166 29.4 1234 34.17C1302.9 39.3 1371 48.3 1406 53.43L1440 58.2V231H1405.7C1371.4 231 1303 231 1234 231C1165.7 231 1097 231 1029 231C960 231 891 231 823 231C754.3 231 686 231 617 231C548.6 231 480 231 411 231C342.9 231 274 231 206 231C137.1 231 69 231 34 231H0V0.600006Z" fill="#644BC8"/>
</svg>
