<svg width="138" height="138" viewBox="0 0 138 138" fill="none" xmlns="http://www.w3.org/2000/svg">
<mask id="mask0_27_569" style="mask-type:luminance" maskUnits="userSpaceOnUse" x="41" y="36" width="56" height="52">
<path d="M41.4 36.225H96.6V87.4H41.4V36.225Z" fill="white"/>
</mask>
<g mask="url(#mask0_27_569)">
<path d="M41.418 36.243L89.5562 85.0461C89.5562 85.0461 91.1914 86.1602 92.4492 84.8664C93.6891 83.5727 92.7367 82.2789 92.7367 82.2789L41.418 36.243Z" fill="#3F4EC4"/>
</g>
<mask id="mask1_27_569" style="mask-type:luminance" maskUnits="userSpaceOnUse" x="55" y="36" width="44" height="47">
<path d="M55.2 36.8H98.1093V82.8H55.2V36.8Z" fill="white"/>
</mask>
<g mask="url(#mask1_27_569)">
<path d="M56.6554 40.843L93.3116 78.6851C93.3116 78.6851 94.9468 79.7992 96.2046 78.5055C97.4624 77.2117 96.4921 75.918 96.4921 75.918L56.6554 40.843Z" fill="#3F4EC4"/>
</g>
<mask id="mask2_27_569" style="mask-type:luminance" maskUnits="userSpaceOnUse" x="41" y="50" width="47" height="40">
<path d="M41.4 50.6H87.4V89.6461H41.4V50.6Z" fill="white"/>
</mask>
<g mask="url(#mask2_27_569)">
<path d="M45.9462 50.7258L82.6024 88.55C82.6024 88.55 84.2376 89.6641 85.4954 88.3703C86.7532 87.0766 85.7829 85.7828 85.7829 85.7828L45.9462 50.7258Z" fill="#3F4EC4"/>
</g>
<mask id="mask3_27_569" style="mask-type:luminance" maskUnits="userSpaceOnUse" x="69" y="41" width="30" height="33">
<path d="M69 41.4H98.1094V73.6H69V41.4Z" fill="white"/>
</mask>
<g mask="url(#mask3_27_569)">
<path d="M69.5391 44.8141L95.1445 71.2461C95.1445 71.2461 96.2945 72.0187 97.175 71.1203C98.0375 70.2219 97.3726 69.3234 97.3726 69.3234L69.5391 44.8141Z" fill="#3F4EC4"/>
</g>
<mask id="mask4_27_569" style="mask-type:luminance" maskUnits="userSpaceOnUse" x="46" y="59" width="33" height="31">
<path d="M46 59.8H78.2V89.6461H46V59.8Z" fill="white"/>
</mask>
<g mask="url(#mask4_27_569)">
<path d="M49.468 62.1719L75.0915 88.6039C75.0915 88.6039 76.2235 89.3766 77.104 88.4602C77.9844 87.5617 77.3016 86.6633 77.3016 86.6633L49.468 62.1719Z" fill="#3F4EC4"/>
</g>
<path d="M82.6921 50.5461L94.2999 62.5492C94.2999 62.5492 94.8749 62.9086 95.3062 62.4953C95.7374 62.0641 95.414 61.6508 95.414 61.6508L82.6921 50.5461Z" fill="#3F4EC4"/>
<path d="M55.8828 74.3547L67.4906 86.3578C67.4906 86.3578 68.0656 86.7172 68.4969 86.3039C68.9281 85.8726 68.5867 85.4594 68.5867 85.4594L55.8828 74.3547Z" fill="#3F4EC4"/>
</svg>
