<?xml version="1.0" standalone="no"?>
<!DOCTYPE svg PUBLIC "-//W3C//DTD SVG 20010904//EN"
 "http://www.w3.org/TR/2001/REC-SVG-20010904/DTD/svg10.dtd">
<svg version="1.0" xmlns="http://www.w3.org/2000/svg"
 width="1024.000000pt" height="778.000000pt" viewBox="0 0 1024.000000 778.000000"
 preserveAspectRatio="xMidYMid meet">

<g transform="translate(0.000000,778.000000) scale(0.100000,-0.100000)"
fill="#000000" stroke="none">
<path d="M3040 7715 l0 -65 44 0 44 0 6 45 c11 71 3 85 -50 85 l-44 0 0 -65z"/>
<path d="M3026 7219 c-3 -8 -10 -88 -16 -179 -6 -91 -13 -177 -16 -192 -3 -17
-1 -28 5 -28 6 0 11 14 11 30 0 28 2 30 38 30 l38 0 12 108 c6 59 14 135 17
170 l6 62 -30 0 c-16 0 -36 3 -45 6 -9 3 -18 0 -20 -7z"/>
<path d="M3053 6813 c9 -2 23 -2 30 0 6 3 -1 5 -18 5 -16 0 -22 -2 -12 -5z"/>
<path d="M8939 6627 c-41 -12 -83 -36 -132 -77 -23 -18 -66 -90 -74 -122 -17
-70 -13 -225 7 -213 4 3 6 -3 3 -13 -2 -11 3 -36 11 -57 9 -20 16 -47 16 -59
0 -12 7 -32 16 -44 8 -12 13 -22 11 -22 -11 0 47 -151 89 -235 43 -85 45 -92
33 -127 -7 -22 -9 -54 -5 -78 6 -37 1 -54 -38 -134 -24 -50 -96 -198 -160
-329 -64 -131 -116 -243 -116 -248 0 -5 4 -9 10 -9 5 0 25 -15 45 -34 l35 -34
73 151 c280 578 268 556 297 562 60 13 91 86 62 144 -17 36 -17 36 12 84 25
42 27 52 17 75 -10 24 -10 25 3 9 13 -17 15 -17 29 15 33 77 37 91 32 112 -4
14 -3 17 3 8 6 -10 13 1 22 35 7 26 17 53 22 60 5 6 8 20 6 30 -1 10 2 25 7
33 20 30 44 151 35 174 -8 19 -9 18 -10 -9 -1 -47 -50 -126 -102 -165 -115
-87 -264 -79 -374 21 -30 27 -52 49 -50 49 3 0 -5 21 -16 48 -30 68 -27 164 7
233 56 109 157 166 278 156 83 -7 84 -8 143 -46 64 -42 113 -125 121 -206 3
-31 10 -58 15 -61 8 -5 6 22 -8 114 -3 17 -9 32 -13 32 -5 0 -12 11 -15 25 -4
14 -11 25 -17 25 -6 0 -8 4 -5 8 8 13 -63 76 -112 101 -53 27 -151 35 -213 18z
m-149 -487 c0 -5 -7 -7 -15 -4 -8 4 -15 8 -15 10 0 2 7 4 15 4 8 0 15 -4 15
-10z m466 -15 c-9 -9 -16 -13 -16 -8 0 12 22 34 28 28 2 -2 -3 -11 -12 -20z
m-27 -58 c0 -21 -1 -21 -9 -2 -12 28 -12 37 0 30 6 -3 10 -16 9 -28z m-49 -17
c0 -5 -4 -10 -10 -10 -5 0 -10 5 -10 10 0 6 5 10 10 10 6 0 10 -4 10 -10z
m-93 -16 c-3 -3 -12 -4 -19 -1 -8 3 -5 6 6 6 11 1 17 -2 13 -5z m146 -24 c-3
-12 -8 -19 -11 -16 -5 6 5 36 12 36 2 0 2 -9 -1 -20z m-373 -5 c0 -8 -2 -15
-4 -15 -2 0 -6 7 -10 15 -3 8 -1 15 4 15 6 0 10 -7 10 -15z m8 -140 c-3 -3 -9
2 -12 12 -6 14 -5 15 5 6 7 -7 10 -15 7 -18z m79 -167 c-3 -8 -6 -5 -6 6 -1
11 2 17 5 13 3 -3 4 -12 1 -19z"/>
<path d="M2946 6368 c-13 -62 -48 -369 -43 -374 3 -3 23 -8 45 -11 46 -6 40
-25 72 216 27 206 29 191 -25 191 -38 0 -45 -3 -49 -22z"/>
<path d="M2826 5552 c-11 -41 -69 -382 -65 -386 2 -2 23 -7 45 -11 48 -7 37
-36 85 224 17 90 27 167 22 171 -4 4 -25 10 -45 13 -29 4 -38 2 -42 -11z"/>
<path d="M8531 4738 c-17 -33 -31 -65 -31 -70 0 -17 49 -27 80 -16 52 18 70
103 28 132 -36 25 -45 20 -77 -46z"/>
<path d="M2666 4733 c-17 -61 -86 -376 -82 -380 7 -7 80 -22 85 -18 4 4 91
373 91 387 0 7 -12 11 -62 22 -20 5 -28 2 -32 -11z"/>
<path d="M8425 4519 c-46 -99 -54 -134 -32 -142 7 -3 5 -6 -5 -6 -11 -1 -18 6
-18 17 -1 9 -37 -55 -81 -143 -86 -171 -308 -605 -394 -770 -29 -55 -92 -176
-140 -270 -49 -93 -114 -218 -146 -277 -57 -108 -57 -108 -32 -108 24 0 21 -5
-35 -60 -34 -33 -62 -64 -62 -70 0 -16 82 -92 91 -83 12 13 280 523 534 1018
65 127 163 315 217 419 55 104 110 213 123 242 l24 54 -22 1 c-17 1 -18 2 -4
6 22 6 22 25 -3 73 -18 36 -19 40 -4 40 10 0 15 -3 11 -6 -9 -9 14 -65 24 -58
6 3 8 -6 4 -23 -3 -15 21 24 52 87 l58 115 -50 8 c-27 4 -52 13 -57 20 -4 7
-25 -25 -53 -84z m65 -96 c-11 -17 -11 -17 -6 0 3 10 6 24 7 30 0 9 2 9 5 0 3
-7 0 -20 -6 -30z"/>
<path d="M2462 3893 c-16 -65 -80 -310 -87 -332 -4 -14 4 -20 36 -30 23 -7 45
-9 49 -4 4 4 14 35 23 68 17 68 62 234 76 283 7 24 7 34 -2 37 -7 2 -27 8 -46
14 -19 6 -35 11 -36 11 -1 0 -7 -21 -13 -47z"/>
<path d="M2225 3043 c-14 -49 -41 -136 -59 -195 l-33 -108 36 -10 c38 -11 61
-13 61 -6 0 3 25 87 55 187 30 100 55 185 55 189 0 6 -67 30 -83 30 -3 0 -18
-39 -32 -87z"/>
<path d="M7395 2524 c-27 -53 -50 -103 -52 -112 -1 -10 -4 -34 -6 -55 -3 -21
-9 -43 -15 -49 -8 -8 -9 -4 -5 13 4 16 2 21 -5 14 -11 -11 -49 -156 -58 -228
-4 -26 -10 -50 -14 -52 -4 -2 -72 9 -151 24 -621 125 -1031 203 -1036 198 -5
-6 -64 -338 -159 -907 -25 -151 -49 -278 -53 -282 -6 -6 -461 24 -568 38 l-43
5 0 65 c0 35 -4 64 -8 64 -5 0 -91 -27 -191 -61 -101 -33 -189 -58 -197 -55
-28 11 -26 51 3 102 40 67 94 205 138 349 48 156 58 287 27 357 -28 64 -97
137 -157 164 -78 37 -182 34 -263 -7 -109 -54 -164 -146 -164 -274 0 -134 104
-463 189 -598 23 -36 23 -39 9 -81 -29 -86 16 -151 106 -151 34 0 53 6 71 23
l24 22 59 -25 c32 -14 68 -30 79 -35 68 -31 167 -74 207 -90 53 -22 58 -18 58
52 l0 40 53 -5 c134 -15 646 -49 659 -44 9 3 17 25 21 59 4 29 45 275 92 546
46 272 87 516 91 543 4 29 12 49 19 49 7 0 102 -18 211 -39 445 -88 930 -182
943 -184 18 -3 37 53 66 198 13 66 31 140 40 164 19 54 19 51 -3 51 -11 0 -27
9 -37 20 -15 17 -16 24 -7 45 6 14 17 25 24 25 9 0 9 -3 0 -12 -17 -17 -15
-26 6 -31 15 -4 15 -5 -1 -6 -23 -1 -17 -25 7 -29 9 -2 24 2 32 9 14 12 14 14
-3 20 -16 7 -16 8 0 8 24 1 21 20 -5 31 -14 5 -17 9 -7 9 8 1 20 -4 27 -11 14
-14 11 -18 53 63 l35 66 -41 41 c-22 23 -42 42 -45 42 -3 0 -27 -43 -55 -96z
m-2546 -435 c138 -69 192 -240 121 -383 -93 -184 -376 -198 -487 -23 -54 85
-60 196 -15 288 67 138 236 190 381 118z"/>
<path d="M1976 2258 c-67 -192 -95 -275 -98 -292 -2 -14 7 -22 36 -32 22 -8
41 -12 44 -10 4 5 132 368 132 377 0 5 -68 29 -83 29 -3 0 -16 -33 -31 -72z"/>
<path d="M1700 1480 c-13 -34 -21 -62 -19 -64 2 -2 23 -6 46 -10 42 -6 43 -5
58 31 30 71 29 77 -8 91 -18 7 -38 12 -44 12 -6 0 -21 -27 -33 -60z"/>
<path d="M1601 1218 c-12 -28 -20 -52 -19 -54 8 -6 82 -34 85 -31 1 2 14 30
27 63 l24 59 -26 6 c-61 15 -68 12 -91 -43z"/>
<path d="M1470 693 c0 -53 1 -53 23 5 16 41 16 42 -3 42 -17 0 -20 -7 -20 -47z"/>
<path d="M1366 642 c-10 -26 -30 -72 -44 -102 -47 -106 -47 -108 6 -101 6 1
12 -5 12 -14 0 -17 -17 -19 -39 -6 -17 11 -41 3 -41 -13 0 -15 43 -36 73 -36
18 0 28 15 58 88 32 80 34 90 21 110 -8 12 -17 44 -21 72 l-6 50 -19 -48z"/>
</g>
</svg>
