<svg width="107" height="136" viewBox="0 0 107 136" fill="none" xmlns="http://www.w3.org/2000/svg">
<path fill-rule="evenodd" clip-rule="evenodd" d="M22.6874 13.1363C22.6874 11.4924 37.9289 0 53.0624 0C68.1959 0 83.4374 11.4961 83.4374 13.1363C83.4374 18.9913 82.8772 22.4593 82.4047 24.3472C82.0908 25.5857 81.0479 26.2726 79.8903 26.2726H26.2346C25.0769 26.2726 24.0341 25.5857 23.7202 24.3472C23.2477 22.4593 22.6874 18.9913 22.6874 13.1363ZM47.9999 11.2597C47.1048 11.2597 46.2464 11.6551 45.6135 12.359C44.9805 13.0628 44.6249 14.0175 44.6249 15.0129C44.6249 16.0083 44.9805 16.963 45.6135 17.6668C46.2464 18.3707 47.1048 18.7661 47.9999 18.7661H58.1249C59.02 18.7661 59.8785 18.3707 60.5114 17.6668C61.1444 16.963 61.4999 16.0083 61.4999 15.0129C61.4999 14.0175 61.1444 13.0628 60.5114 12.359C59.8785 11.6551 59.02 11.2597 58.1249 11.2597H47.9999ZM26.1907 49.6101C14.9519 45.7443 17.7869 38.8384 22.0732 33.779H84.9899C88.4189 38.6507 90.2583 45.2226 79.8937 49.156C80.3173 53.3372 79.946 57.5707 78.8038 61.582C77.6616 65.5933 75.774 69.2929 73.2635 72.4409C70.753 75.5888 67.6755 78.1148 64.2307 79.8551C60.7859 81.5954 57.0506 82.5111 53.2671 82.5428C49.4836 82.5745 45.7363 81.7216 42.2683 80.0393C38.8002 78.357 35.6889 75.8829 33.1359 72.7774C30.583 69.6719 28.6454 66.0044 27.449 62.0127C26.2525 58.021 25.8238 53.7942 26.1907 49.6064V49.6101ZM52.1444 52.5452C61.0612 52.5452 67.9732 52.0197 73.2719 51.1039C73.4461 54.164 73.0565 57.2314 72.127 60.1181C71.1976 63.0048 69.7478 65.65 67.8665 67.8916C65.9853 70.1332 63.7122 71.9239 61.1866 73.1541C58.661 74.3842 55.9362 75.0279 53.179 75.0455C50.4219 75.0632 47.6905 74.4545 45.1524 73.2568C42.6142 72.0591 40.3227 70.2976 38.4184 68.0802C36.5141 65.8629 35.037 63.2364 34.0776 60.3618C33.1183 57.4872 32.697 54.425 32.8394 51.3629C37.7771 52.121 44.1052 52.5452 52.1444 52.5452ZM81.4698 107.342C78.417 102.046 74.2151 97.6883 69.2508 94.6713C64.2866 91.6542 58.7196 90.0745 53.0624 90.0774C47.4029 90.0734 41.8335 91.6534 36.8673 94.6719C31.9011 97.6903 27.6979 102.05 24.6449 107.35C23.5119 105.409 21.7718 104.005 19.7613 103.409L13.2408 101.468C11.0796 100.824 8.77672 101.161 6.83871 102.405C4.90071 103.648 3.48629 105.697 2.90656 108.1L0.287565 118.977C0.000730433 120.168 -0.0724548 121.409 0.0721889 122.631C0.216833 123.853 0.576474 125.031 1.13057 126.098C1.68467 127.165 2.42237 128.1 3.30155 128.851C4.18073 129.601 5.18417 130.151 6.25456 130.47L12.7717 132.414C13.8679 132.742 15.0125 132.82 16.1367 132.644C17.2608 132.467 18.3411 132.039 19.3124 131.385C19.3151 132.381 19.6733 133.334 20.3081 134.036C20.9429 134.738 21.8025 135.13 22.6976 135.127C23.5927 135.124 24.4501 134.726 25.0811 134.02C25.7121 133.314 26.0651 132.358 26.0624 131.363V127.61C26.0624 126.18 26.1536 124.772 26.3257 123.395L43.8892 128.631C44.7045 130.571 46.0006 132.213 47.6254 133.363C49.2502 134.513 51.1363 135.124 53.0624 135.124C54.9885 135.124 56.8747 134.513 58.4995 133.363C60.1243 132.213 61.4204 130.571 62.2357 128.631L79.7992 123.395C79.9713 124.772 80.0624 126.18 80.0624 127.61V131.363C80.058 132.358 80.4092 133.315 81.039 134.022C81.6688 134.73 82.5255 135.13 83.4206 135.135C84.3157 135.14 85.1759 134.749 85.812 134.049C86.4481 133.349 86.808 132.396 86.8124 131.4C88.7024 132.662 91.0379 133.101 93.3363 132.414L99.8568 130.473C100.927 130.155 101.931 129.604 102.81 128.854C103.689 128.104 104.427 127.169 104.981 126.102C105.535 125.034 105.895 123.856 106.039 122.635C106.184 121.413 106.111 120.171 105.824 118.981L103.201 108.104C102.622 105.701 101.207 103.652 99.2693 102.408C97.3313 101.165 95.0284 100.828 92.8672 101.472L86.3467 103.413C84.3409 104.007 82.6037 105.409 81.4698 107.342ZM28.0976 116.151C29.9207 111.248 32.8786 106.968 36.6706 103.748C40.4627 100.528 44.9538 98.4814 49.6874 97.8166V113.239C48.1749 113.835 46.8112 114.822 45.7082 116.119C44.6053 117.415 43.7945 118.984 43.3424 120.696L28.0976 116.155V116.151ZM78.0273 116.151C76.2039 111.248 73.2459 106.969 69.4539 103.749C65.6619 100.528 61.171 98.4818 56.4374 97.8166V113.239C59.4884 114.44 61.8712 117.217 62.7824 120.696L78.0273 116.155V116.151ZM53.0624 127.61C53.9575 127.61 54.816 127.214 55.4489 126.51C56.0819 125.807 56.4374 124.852 56.4374 123.856C56.4374 122.861 56.0819 121.906 55.4489 121.203C54.816 120.499 53.9575 120.103 53.0624 120.103C52.1673 120.103 51.3089 120.499 50.676 121.203C50.043 121.906 49.6874 122.861 49.6874 123.856C49.6874 124.852 50.043 125.807 50.676 126.51C51.3089 127.214 52.1673 127.61 53.0624 127.61Z" fill="#353B41"/>
</svg>
